Coordinates
version=1
nRows=4
nColumns=107
inDegrees=yes

Units are S.I. units (second, meters, Newtons, ...)
If the header above contains a line with 'inDegrees', this indicates whether rotational values are in degrees (yes) or radians (no).

endheader
time	sternoclavicular_r2	sternoclavicular_r3	unrotscap_r3	unrotscap_r2	acromioclavicular_r2	acromioclavicular_r3	acromioclavicular_r1	unrothum_r1	unrothum_r3	unrothum_r2	elv_angle	shoulder_elv	shoulder1_r2	shoulder_rot	elbow_flexion	pro_sup	deviation	flexion	proximal_distal_r1	proximal_distal_r3	cmc_flexion	cmc_abduction	mp_flexion	ip_flexion	mcp2_flexion	mcp2_abduction	pm2_flexion	md2_flexion	mcp3_flexion	mcp3_abduction	pm3_flexion	md3_flexion	mcp4_flexion	mcp4_abduction	pm4_flexion	md4_flexion	mcp5_flexion	mcp5_abduction	pm5_flexion	md5_flexion	bicpt_tx	bicpt_ty	bicpt_tz	bicpt2_tx	bicpt2_ty	bicpt2_tz	ptpt_tx	ptpt_ty	ptpt_tz	FCUpt_tx	FCUpt_ty	FCUpt_tz	EDCpt_tx	EDCpt_ty	EDCpt_tz	APLpt_tx	APLpt_ty	APLpt_tz	FPLpt_tx	FPLpt_ty	FPLpt_tz	FPLpt2_tx	FPLpt2_ty	FPLpt2_tz	PEC1pt2_tx	PEC1pt2_ty	PEC1pt2_tz	PEC1pt3_tx	PEC1pt3_ty	PEC1pt3_tz	PEC2pt2_tx	PEC2pt2_ty	PEC2pt2_tz	PEC2pt3_tx	PEC2pt3_ty	PEC2pt3_tz	PEC3pt2_tx	PEC3pt2_ty	PEC3pt2_tz	PEC3pt3_tx	PEC3pt3_ty	PEC3pt3_tz	DELT2pt2a_tx	DELT2pt2a_ty	DELT2pt2a_tz	DELT2pt2_tx	DELT2pt2_ty	DELT2pt2_tz	LAT1pt2_tx	LAT1pt2_ty	LAT1pt2_tz	LAT1pt3_tx	LAT1pt3_ty	LAT1pt3_tz	LAT2pt2_tx	LAT2pt2_ty	LAT2pt2_tz	LAT2pt3_tx	LAT2pt3_ty	LAT2pt3_tz	LAT3pt2_tx	LAT3pt2_ty	LAT3pt2_tz	LAT3pt3_tx	LAT3pt3_ty	LAT3pt3_tz
      1.60000000	     -0.31757990	      0.13451186	     -0.13451186	      0.31757990	     -0.06430347	      0.51967802	      0.23359169	     -0.23359169	     -0.51967802	      0.06430347	    101.32137817	     75.18986354	     -1.76839165	    -31.11702405	     27.59194608	     38.60679622	      0.22585435	     -0.28973814	      0.26476396	     -0.14486907	     28.23945014	    -12.34507985	      3.65007469	     -0.72136304	      6.45977639	      6.47917573	     13.42937554	    -15.54150548	     -3.60996945	     -1.63512612	     14.66816907	     16.49297052	     -6.44796308	     -4.01314173	      5.30901803	     21.22024545	    -15.02348576	    -10.86565393	      6.15748740	      4.97833322	      0.00081266	     -0.03076246	     -0.00480939	      0.01656958	     -0.01769549	     -0.00761740	      0.00469739	     -0.06674454	     -0.00315998	      0.00764027	     -0.18352377	     -0.00037580	     -0.00463280	      0.00132387	      0.00015590	      0.00022614	      0.00009046	      0.00045229	      0.00028946	      0.00086839	      0.00048847	     -0.00000588	     -0.00026295	     -0.00031554	      0.00246456	      0.00864684	      0.00601519	     -0.00806203	      0.01946584	     -0.01846330	      0.00246456	      0.00864684	      0.00601519	      0.00054304	      0.01804558	     -0.00948229	      0.00391078	      0.00480840	      0.01587607	      0.00000000	      0.00755946	      0.00000000	     -0.00705950	     -0.03262407	     -0.00623186	      0.01936485	     -0.00079540	     -0.00805022	     -0.00087722	      0.01470381	     -0.00601519	      0.00242279	      0.02122027	     -0.01754432	     -0.00588988	      0.01274052	     -0.00538861	     -0.01228102	      0.02690129	     -0.03011774	     -0.02305824	      0.01424431	     -0.00722659	     -0.01528862	      0.03107850	     -0.03763674
      1.63333333	     -0.31785598	      0.13462879	     -0.13462879	      0.31785598	     -0.06435937	      0.52012979	      0.23379476	     -0.23379476	     -0.52012979	      0.06435937	    101.18963794	     75.25522783	     -1.76609235	    -30.61782462	     27.65701975	     37.64760680	      0.22924420	     -0.27439775	      0.26810173	     -0.13719887	     28.10512706	    -12.67661412	      4.46897465	     -0.57512695	      6.01967648	      6.36755860	     13.07282109	    -19.01759325	     -4.29463313	     -1.75343173	     12.70165230	     14.66749754	     -6.53307962	     -3.89180736	      1.03880468	     20.36750506	    -16.23785509	    -10.43312934	      3.21491508	      4.94556023	      0.00081481	     -0.03076992	     -0.00481059	      0.01656378	     -0.01771317	     -0.00771733	      0.00476827	     -0.06669871	     -0.00308272	      0.00754424	     -0.18354323	     -0.00036767	     -0.00451770	      0.00128539	      0.00016183	      0.00021769	      0.00008708	      0.00043538	      0.00027865	      0.00083594	      0.00047021	     -0.00000566	     -0.00026384	     -0.00031661	      0.00246670	      0.00865436	      0.00602042	     -0.00806904	      0.01948276	     -0.01847935	      0.00246670	      0.00865436	      0.00602042	      0.00054351	      0.01806127	     -0.00949053	      0.00391327	      0.00481258	      0.01588227	      0.00000000	      0.00757270	      0.00000000	     -0.00706564	     -0.03265243	     -0.00624285	      0.01914936	     -0.00077824	     -0.00780194	     -0.00087798	      0.01471659	     -0.00602042	      0.00242489	      0.02123872	     -0.01755957	     -0.00589500	      0.01275159	     -0.00539330	     -0.01229170	      0.02692467	     -0.03014393	     -0.02307829	      0.01425670	     -0.00723287	     -0.01530191	      0.03110552	     -0.03766945
      1.66666667	     -0.31795310	      0.13466993	     -0.13466993	      0.31795310	     -0.06437903	      0.52028871	      0.23386620	     -0.23386620	     -0.52028871	      0.06437903	    101.17662931	     75.27822218	     -1.76586531	    -30.63016761	     27.65861038	     37.64398941	      0.22931396	     -0.27446009	      0.26817022	     -0.13723005	     28.10754128	    -12.67723038	      4.47019862	     -0.57467164	      6.01849955	      6.36743545	     13.07284107	    -19.01818212	     -4.29892552	     -1.75383993	     12.70087470	     14.66712774	     -6.53571783	     -3.89252822	      1.03681593	     20.36716758	    -16.24024831	    -10.43357770	      3.21315254	      4.94539815	      0.00081486	     -0.03077010	     -0.00481062	      0.01656366	     -0.01771360	     -0.00771765	      0.00476853	     -0.06669854	     -0.00308243	      0.00754389	     -0.18354329	     -0.00036760	     -0.00451727	      0.00128526	      0.00016183	      0.00021773	      0.00008709	      0.00043545	      0.00027869	      0.00083607	      0.00047029	     -0.00000566	     -0.00026378	     -0.00031654	      0.00246745	      0.00865700	      0.00602226	     -0.00807151	      0.01948871	     -0.01848500	      0.00246745	      0.00865700	      0.00602226	      0.00054368	      0.01806679	     -0.00949343	      0.00391415	      0.00481405	      0.01588445	      0.00000000	      0.00757736	      0.00000000	     -0.00706779	     -0.03266241	     -0.00624672	      0.01915471	     -0.00077866	     -0.00780806	     -0.00087825	      0.01472109	     -0.00602226	      0.00242563	      0.02124521	     -0.01756493	     -0.00589680	      0.01275549	     -0.00539494	     -0.01229545	      0.02693290	     -0.03015314	     -0.02308534	      0.01426105	     -0.00723508	     -0.01530658	      0.03111502	     -0.03768096
      1.70000000	     -0.31820022	      0.13477459	     -0.13477459	      0.31820022	     -0.06442907	      0.52069309	      0.23404796	     -0.23404796	     -0.52069309	      0.06442907	    101.11870462	     75.33673019	     -1.76485433	    -30.16083763	     27.56685600	     36.84019421	      0.23025699	     -0.27355870	      0.26909544	     -0.13677935	     28.43680419	    -13.17852337	      5.14896043	     -1.06309633	      5.56534737	      6.33095155	     13.67827601	    -20.46884485	     -5.20195779	     -1.93776141	     12.54035022	     14.59850377	     -7.02517304	     -4.00640481	     -0.60370549	     21.00318755	    -16.75816011	    -10.28865258	      1.90237744	      4.95092550	      0.00081183	     -0.03075958	     -0.00480893	      0.01655708	     -0.01768867	     -0.00780034	      0.00482793	     -0.06666014	     -0.00301768	      0.00746365	     -0.18355938	     -0.00036023	     -0.00442081	      0.00125325	      0.00016640	      0.00021722	      0.00008689	      0.00043444	      0.00027804	      0.00083412	      0.00046919	     -0.00000621	     -0.00026167	     -0.00031400	      0.00246937	      0.00866373	      0.00602694	     -0.00807778	      0.01950386	     -0.01849937	      0.00246937	      0.00866373	      0.00602694	      0.00054410	      0.01808083	     -0.00950081	      0.00391638	      0.00481779	      0.01588998	      0.00000000	      0.00758922	      0.00000000	     -0.00707329	     -0.03268780	     -0.00625657	      0.01894914	     -0.00076259	     -0.00757729	     -0.00087893	      0.01473253	     -0.00602694	      0.00242752	      0.02126172	     -0.01757859	     -0.00590138	      0.01276540	     -0.00539914	     -0.01230501	      0.02695383	     -0.03017657	     -0.02310328	      0.01427214	     -0.00724070	     -0.01531848	      0.03113921	     -0.03771025
